# Blender v2.77 (sub 0) OBJ File: ''
# www.blender.org
mtllib coneProject2.mtl
o Cone.001
v 0.000000 -1.000000 0.000000
v 0.000000 -1.000000 1.000000
v 0.195090 -1.000000 0.980785
v 0.382683 -1.000000 0.923880
v 0.555570 -1.000000 0.831470
v 0.707107 -1.000000 0.707107
v 0.831470 -1.000000 0.555570
v 0.923880 -1.000000 0.382684
v 0.980785 -1.000000 0.195090
v 1.000000 -1.000000 0.000000
v 0.980785 -1.000000 -0.195090
v 0.923880 -1.000000 -0.382683
v 0.831470 -1.000000 -0.555570
v 0.707107 -1.000000 -0.707107
v 0.555570 -1.000000 -0.831470
v 0.382683 -1.000000 -0.923880
v 0.000000 -3.000000 -0.000000
v 0.195090 -1.000000 -0.980785
v -0.000000 -1.000000 -1.000000
v -0.195091 -1.000000 -0.980785
v -0.382684 -1.000000 -0.923879
v -0.555571 -1.000000 -0.831469
v -0.707107 -1.000000 -0.707106
v -0.831470 -1.000000 -0.555570
v -0.923880 -1.000000 -0.382683
v -0.980785 -1.000000 -0.195089
v -1.000000 -1.000000 0.000001
v -0.980785 -1.000000 0.195091
v -0.923879 -1.000000 0.382685
v -0.831469 -1.000000 0.555571
v -0.707106 -1.000000 0.707108
v -0.555569 -1.000000 0.831470
v -0.382682 -1.000000 0.923880
v -0.195089 -1.000000 0.980786
vn 0.0000 1.0000 0.0000
vn 0.0878 -0.4455 0.8910
vn 0.2599 -0.4455 0.8567
vn 0.4220 -0.4455 0.7896
vn 0.5680 -0.4455 0.6921
vn 0.6921 -0.4455 0.5680
vn 0.7896 -0.4455 0.4220
vn 0.8567 -0.4455 0.2599
vn 0.8910 -0.4455 0.0878
vn 0.8910 -0.4455 -0.0878
vn 0.8567 -0.4455 -0.2599
vn 0.7896 -0.4455 -0.4220
vn 0.6921 -0.4455 -0.5680
vn 0.5680 -0.4455 -0.6921
vn 0.4220 -0.4455 -0.7896
vn 0.2599 -0.4455 -0.8567
vn 0.0878 -0.4455 -0.8910
vn -0.0878 -0.4455 -0.8910
vn -0.2599 -0.4455 -0.8567
vn -0.4220 -0.4455 -0.7896
vn -0.5680 -0.4455 -0.6921
vn -0.6921 -0.4455 -0.5680
vn -0.7896 -0.4455 -0.4220
vn -0.8567 -0.4455 -0.2599
vn -0.8910 -0.4455 -0.0878
vn -0.8910 -0.4455 0.0878
vn -0.8567 -0.4455 0.2599
vn -0.7896 -0.4455 0.4220
vn -0.6921 -0.4455 0.5680
vn -0.5680 -0.4455 0.6921
vn -0.4220 -0.4455 0.7896
vn -0.2599 -0.4455 0.8567
vn -0.0878 -0.4455 0.8910
usemtl None
s off
f 1//1 2//1 3//1
f 2//2 17//2 3//2
f 1//1 3//1 4//1
f 3//3 17//3 4//3
f 1//1 4//1 5//1
f 4//4 17//4 5//4
f 1//1 5//1 6//1
f 5//5 17//5 6//5
f 1//1 6//1 7//1
f 6//6 17//6 7//6
f 1//1 7//1 8//1
f 7//7 17//7 8//7
f 1//1 8//1 9//1
f 8//8 17//8 9//8
f 1//1 9//1 10//1
f 9//9 17//9 10//9
f 1//1 10//1 11//1
f 10//10 17//10 11//10
f 1//1 11//1 12//1
f 11//11 17//11 12//11
f 1//1 12//1 13//1
f 12//12 17//12 13//12
f 1//1 13//1 14//1
f 13//13 17//13 14//13
f 1//1 14//1 15//1
f 14//14 17//14 15//14
f 1//1 15//1 16//1
f 15//15 17//15 16//15
f 1//1 16//1 18//1
f 16//16 17//16 18//16
f 1//1 18//1 19//1
f 18//17 17//17 19//17
f 1//1 19//1 20//1
f 19//18 17//18 20//18
f 1//1 20//1 21//1
f 20//19 17//19 21//19
f 1//1 21//1 22//1
f 21//20 17//20 22//20
f 1//1 22//1 23//1
f 22//21 17//21 23//21
f 1//1 23//1 24//1
f 23//22 17//22 24//22
f 1//1 24//1 25//1
f 24//23 17//23 25//23
f 1//1 25//1 26//1
f 25//24 17//24 26//24
f 1//1 26//1 27//1
f 26//25 17//25 27//25
f 1//1 27//1 28//1
f 27//26 17//26 28//26
f 1//1 28//1 29//1
f 28//27 17//27 29//27
f 1//1 29//1 30//1
f 29//28 17//28 30//28
f 1//1 30//1 31//1
f 30//29 17//29 31//29
f 1//1 31//1 32//1
f 31//30 17//30 32//30
f 1//1 32//1 33//1
f 32//31 17//31 33//31
f 1//1 33//1 34//1
f 33//32 17//32 34//32
f 1//1 34//1 2//1
f 34//33 17//33 2//33
o Cone
v 0.000000 -1.000000 0.000000
v 0.000000 -1.000000 -1.000000
v 0.195090 -1.000000 -0.980785
v 0.382683 -1.000000 -0.923880
v 0.555570 -1.000000 -0.831470
v 0.707107 -1.000000 -0.707107
v 0.831470 -1.000000 -0.555570
v 0.923880 -1.000000 -0.382683
v 0.980785 -1.000000 -0.195090
v 1.000000 -1.000000 -0.000000
v 0.980785 -1.000000 0.195090
v 0.923880 -1.000000 0.382683
v 0.831470 -1.000000 0.555570
v 0.707107 -1.000000 0.707107
v 0.555570 -1.000000 0.831470
v 0.382683 -1.000000 0.923880
v 0.000000 1.000000 0.000000
v 0.195090 -1.000000 0.980785
v -0.000000 -1.000000 1.000000
v -0.195091 -1.000000 0.980785
v -0.382684 -1.000000 0.923879
v -0.555571 -1.000000 0.831469
v -0.707107 -1.000000 0.707106
v -0.831470 -1.000000 0.555570
v -0.923880 -1.000000 0.382683
v -0.980785 -1.000000 0.195089
v -1.000000 -1.000000 -0.000001
v -0.980785 -1.000000 -0.195091
v -0.923879 -1.000000 -0.382684
v -0.831469 -1.000000 -0.555571
v -0.707106 -1.000000 -0.707108
v -0.555569 -1.000000 -0.831470
v -0.382682 -1.000000 -0.923880
v -0.195089 -1.000000 -0.980786
vn 0.0000 -1.0000 0.0000
vn 0.0878 0.4455 -0.8910
vn 0.2599 0.4455 -0.8567
vn 0.4220 0.4455 -0.7896
vn 0.5680 0.4455 -0.6921
vn 0.6921 0.4455 -0.5680
vn 0.7896 0.4455 -0.4220
vn 0.8567 0.4455 -0.2599
vn 0.8910 0.4455 -0.0878
vn 0.8910 0.4455 0.0878
vn 0.8567 0.4455 0.2599
vn 0.7896 0.4455 0.4220
vn 0.6921 0.4455 0.5680
vn 0.5680 0.4455 0.6921
vn 0.4220 0.4455 0.7896
vn 0.2599 0.4455 0.8567
vn 0.0878 0.4455 0.8910
vn -0.0878 0.4455 0.8910
vn -0.2599 0.4455 0.8567
vn -0.4220 0.4455 0.7896
vn -0.5680 0.4455 0.6921
vn -0.6921 0.4455 0.5680
vn -0.7896 0.4455 0.4220
vn -0.8567 0.4455 0.2599
vn -0.8910 0.4455 0.0878
vn -0.8910 0.4455 -0.0878
vn -0.8567 0.4455 -0.2599
vn -0.7896 0.4455 -0.4220
vn -0.6921 0.4455 -0.5680
vn -0.5680 0.4455 -0.6921
vn -0.4220 0.4455 -0.7896
vn -0.2599 0.4455 -0.8567
vn -0.0878 0.4455 -0.8910
usemtl None
s off
f 35//34 36//34 37//34
f 36//35 51//35 37//35
f 35//34 37//34 38//34
f 37//36 51//36 38//36
f 35//34 38//34 39//34
f 38//37 51//37 39//37
f 35//34 39//34 40//34
f 39//38 51//38 40//38
f 35//34 40//34 41//34
f 40//39 51//39 41//39
f 35//34 41//34 42//34
f 41//40 51//40 42//40
f 35//34 42//34 43//34
f 42//41 51//41 43//41
f 35//34 43//34 44//34
f 43//42 51//42 44//42
f 35//34 44//34 45//34
f 44//43 51//43 45//43
f 35//34 45//34 46//34
f 45//44 51//44 46//44
f 35//34 46//34 47//34
f 46//45 51//45 47//45
f 35//34 47//34 48//34
f 47//46 51//46 48//46
f 35//34 48//34 49//34
f 48//47 51//47 49//47
f 35//34 49//34 50//34
f 49//48 51//48 50//48
f 35//34 50//34 52//34
f 50//49 51//49 52//49
f 35//34 52//34 53//34
f 52//50 51//50 53//50
f 35//34 53//34 54//34
f 53//51 51//51 54//51
f 35//34 54//34 55//34
f 54//52 51//52 55//52
f 35//34 55//34 56//34
f 55//53 51//53 56//53
f 35//34 56//34 57//34
f 56//54 51//54 57//54
f 35//34 57//34 58//34
f 57//55 51//55 58//55
f 35//34 58//34 59//34
f 58//56 51//56 59//56
f 35//34 59//34 60//34
f 59//57 51//57 60//57
f 35//34 60//34 61//34
f 60//58 51//58 61//58
f 35//34 61//34 62//34
f 61//59 51//59 62//59
f 35//34 62//34 63//34
f 62//60 51//60 63//60
f 35//34 63//34 64//34
f 63//61 51//61 64//61
f 35//34 64//34 65//34
f 64//62 51//62 65//62
f 35//34 65//34 66//34
f 65//63 51//63 66//63
f 35//34 66//34 67//34
f 66//64 51//64 67//64
f 35//34 67//34 68//34
f 67//65 51//65 68//65
f 35//34 68//34 36//34
f 68//66 51//66 36//66
